<?xml version="1.0" standalone="no"?>
<!DOCTYPE svg PUBLIC "-//W3C//DTD SVG 20010904//EN"
 "http://www.w3.org/TR/2001/REC-SVG-20010904/DTD/svg10.dtd">
<svg version="1.0" xmlns="http://www.w3.org/2000/svg"
 width="500.000000pt" height="500.000000pt" viewBox="0 0 500.000000 500.000000"
 preserveAspectRatio="xMidYMid meet">
<metadata>
Created by potrace 1.14, written by Peter Selinger 2001-2017
</metadata>
<g transform="translate(0.000000,500.000000) scale(0.100000,-0.100000)"
fill="#000000" stroke="none">
<path d="M2335 4009 c-174 -17 -290 -61 -452 -170 -167 -113 -257 -210 -318
-342 -33 -72 -65 -192 -65 -243 0 -33 -5 -31 -122 47 -194 129 -329 260 -409
394 -29 50 -79 116 -110 148 -120 120 -222 128 -334 25 -31 -28 -66 -69 -77
-92 -28 -55 -28 -152 1 -224 11 -29 21 -54 21 -56 0 -2 -15 -9 -32 -16 -92
-37 -125 -91 -113 -188 6 -51 12 -62 54 -103 52 -50 119 -79 184 -79 22 0 89
16 148 35 60 19 118 35 130 35 54 0 119 -35 329 -175 124 -83 252 -166 285
-184 33 -19 61 -35 63 -36 6 -5 51 -185 66 -264 21 -111 20 -136 -9 -237 -14
-47 -25 -96 -25 -109 0 -18 -21 -33 -112 -83 -408 -221 -572 -270 -742 -222
-95 26 -128 23 -219 -20 -141 -67 -182 -136 -141 -240 13 -33 29 -48 83 -80
123 -72 149 -108 198 -278 13 -48 36 -102 49 -120 47 -61 132 -87 201 -61 57
21 91 68 150 208 42 100 67 145 96 174 51 51 218 160 451 292 174 99 190 106
202 90 18 -24 53 -180 65 -284 20 -189 43 -243 130 -302 34 -23 78 -59 98 -81
97 -107 140 -145 186 -167 44 -21 59 -23 130 -17 44 4 133 8 197 10 210 8 276
35 345 144 20 31 71 91 113 133 92 90 117 144 131 284 9 85 15 117 43 257 l11
58 204 -116 c245 -139 415 -248 468 -301 29 -29 54 -74 96 -174 59 -140 93
-187 150 -208 69 -26 154 0 201 62 14 18 35 68 47 112 46 168 76 211 200 285
54 32 70 47 83 80 41 103 0 173 -138 239 -93 44 -128 47 -222 21 -152 -43
-272 -14 -574 137 -255 127 -290 148 -290 176 0 13 -7 50 -16 82 -39 142 -37
165 24 408 l27 109 65 36 c36 19 153 95 260 167 107 73 219 145 247 160 81 42
112 42 239 1 61 -20 129 -36 151 -36 65 0 132 29 184 79 42 41 48 52 54 103
12 97 -21 151 -112 188 -18 7 -33 14 -33 16 0 2 10 27 21 56 29 72 29 169 1
224 -11 23 -46 64 -77 92 -112 103 -213 95 -336 -27 -30 -31 -81 -99 -113
-151 -64 -105 -112 -158 -231 -259 -108 -92 -294 -215 -299 -199 -60 220 -137
349 -298 504 -107 103 -151 133 -279 187 -181 77 -229 89 -369 93 -69 1 -165
-2 -215 -7z m327 -54 c245 -51 435 -165 602 -360 187 -220 237 -461 167 -819
-17 -88 -34 -162 -37 -165 -9 -8 2 189 11 214 6 15 5 17 -4 9 -19 -18 -51
-219 -50 -318 1 -92 7 -147 30 -268 16 -85 3 -134 -51 -188 -99 -99 -201 -111
-404 -49 -71 22 -125 18 -134 -9 -3 -10 4 -12 31 -7 24 5 49 1 85 -15 64 -27
81 -46 53 -55 -30 -9 -74 -66 -62 -78 7 -7 16 -6 28 6 10 8 29 20 43 25 l26
10 -4 -67 c-2 -36 -5 -67 -6 -68 -1 -1 -20 -5 -42 -8 -21 -3 -46 -9 -54 -12
-8 -3 -22 -5 -32 -4 -9 1 -23 -8 -32 -21 -9 -12 -16 -17 -16 -11 0 25 -35 24
-57 -1 -20 -24 -22 -24 -28 -7 -12 38 -68 38 -80 0 -7 -22 -25 -26 -25 -4 0
16 -30 35 -54 35 -9 0 -24 -17 -35 -37 l-19 -38 -15 38 c-13 29 -21 37 -42 37
-19 0 -29 -8 -42 -35 l-17 -35 -10 32 c-14 43 -47 49 -77 14 l-22 -25 -18 22
c-16 20 -20 21 -40 8 -19 -11 -23 -11 -31 4 -7 11 -17 15 -33 11 -13 -3 -27
-2 -30 4 -3 5 -28 10 -55 10 l-48 0 -4 68 c-2 37 -3 68 -2 70 1 2 25 -7 53
-19 29 -12 54 -19 57 -16 7 7 -45 55 -80 74 -28 15 -29 16 -11 29 31 23 123
54 160 54 45 0 45 17 1 26 -37 6 -67 1 -219 -41 -115 -31 -151 -29 -244 16
-69 33 -116 87 -134 153 -9 34 -7 52 21 139 18 55 34 132 37 172 10 127 -31
400 -64 427 -15 12 -15 11 -3 -12 9 -16 14 -71 16 -160 l3 -135 -19 90 c-49
227 -66 557 -34 678 20 78 71 177 128 248 209 263 652 429 968 364z m-1923
-123 c40 -27 105 -105 146 -174 l19 -33 -33 34 c-29 31 -33 33 -48 19 -14 -15
-13 -22 16 -79 35 -71 37 -83 16 -123 -35 -66 -1 -98 40 -38 27 40 34 108 15
156 -14 39 -6 32 30 -24 44 -69 183 -186 309 -261 58 -35 136 -83 174 -107
l67 -43 0 -84 0 -83 -107 62 c-251 145 -363 193 -492 207 -122 14 -160 7 -262
-43 -88 -43 -154 -52 -199 -28 -48 25 -60 119 -24 177 8 12 44 37 80 55 41 20
83 52 110 81 68 76 80 157 23 157 -13 0 -28 -17 -46 -55 -15 -30 -30 -55 -34
-55 -9 0 -29 82 -29 117 1 45 34 106 80 146 38 32 56 41 96 46 6 0 30 -12 53
-27z m3661 -11 c45 -36 78 -84 86 -128 7 -36 -12 -143 -25 -143 -4 0 -19 25
-34 55 -18 38 -33 55 -46 55 -57 0 -45 -81 23 -157 27 -29 69 -61 110 -81 36
-18 72 -43 80 -55 36 -58 24 -152 -24 -177 -45 -24 -111 -15 -199 28 -102 50
-140 57 -262 43 -129 -14 -269 -75 -526 -227 l-73 -43 0 84 0 84 68 43 c37 24
115 72 173 107 127 75 265 191 310 261 36 56 43 62 29 24 -19 -48 -12 -116 15
-156 41 -60 75 -28 40 38 -21 40 -19 52 16 123 29 57 30 64 16 79 -15 14 -18
14 -38 -4 -27 -23 -20 -10 34 69 22 31 61 71 86 87 53 36 86 34 141 -9z
m-3040 -851 c150 -80 146 -78 137 -86 -5 -6 -337 173 -337 181 0 8 68 -25 200
-95z m2475 91 c-27 -24 -335 -187 -335 -177 0 11 75 54 255 145 80 41 97 48
80 32z m-2265 -994 c0 -13 -310 -170 -360 -182 -14 -4 58 39 160 94 102 54
188 100 193 100 4 1 7 -5 7 -12z m2057 -88 c224 -119 207 -121 -34 -4 -150 73
-199 105 -164 105 5 0 94 -45 198 -101z m-112 -46 c124 -71 188 -100 275 -121
127 -32 263 -37 390 -17 162 27 230 29 292 11 97 -28 176 -131 146 -190 -21
-41 -40 -54 -160 -107 -132 -58 -188 -101 -188 -142 0 -40 30 -44 61 -8 14 17
28 31 31 31 9 0 -30 -129 -53 -177 -33 -68 -108 -94 -165 -56 -28 18 -70 95
-114 209 -15 41 -40 88 -55 106 -64 76 -196 161 -497 320 -207 110 -211 112
-187 127 13 9 40 32 59 51 40 41 21 45 165 -37z m-1845 17 c30 -27 52 -51 50
-53 -3 -2 -96 -52 -208 -110 -291 -154 -423 -239 -487 -315 -15 -18 -40 -65
-55 -106 -44 -114 -86 -191 -114 -209 -57 -38 -132 -12 -165 56 -23 48 -62
177 -53 177 3 0 17 -14 31 -31 31 -36 61 -32 61 8 0 38 -55 83 -156 127 -127
56 -172 83 -189 115 -20 41 -3 93 47 142 70 67 176 85 320 53 50 -12 120 -17
223 -17 201 1 283 22 467 123 73 40 137 76 143 81 16 16 29 9 85 -41z m220
-117 c23 -27 48 -61 56 -78 14 -30 14 -29 9 20 -4 41 -2 46 7 30 6 -11 11 -46
10 -78 -1 -32 4 -73 12 -91 9 -23 11 -38 4 -50 -20 -35 14 -116 47 -116 7 0
18 -6 25 -14 18 -23 149 -86 164 -80 8 3 26 -2 40 -11 14 -9 30 -14 36 -10 6
4 23 3 38 -3 88 -31 103 -34 117 -22 12 10 18 10 30 0 8 -7 23 -9 37 -4 13 4
35 7 49 5 14 -1 31 5 39 14 9 11 16 12 26 4 9 -7 19 -7 36 2 13 7 31 12 41 10
10 -1 26 4 35 11 10 8 28 15 41 16 13 0 31 8 40 16 10 9 22 16 28 16 6 0 16 7
23 15 7 8 20 15 30 15 9 0 25 9 35 20 10 11 23 20 30 20 7 0 20 9 31 21 15 17
19 40 21 132 3 121 16 189 41 209 13 11 14 10 4 -9 -7 -12 -12 -39 -12 -60 l0
-38 24 50 c13 28 34 59 46 70 l23 20 -8 -20 c-4 -11 -12 -65 -17 -120 -20
-225 -57 -386 -96 -417 -16 -12 -16 -11 -1 12 19 30 43 100 36 106 -3 3 -15
-16 -27 -41 -12 -25 -43 -69 -69 -98 -26 -29 -66 -79 -88 -112 -53 -77 -87
-109 -146 -135 -44 -20 -59 -21 -157 -15 -74 5 -135 3 -189 -5 -78 -13 -80
-13 -135 14 -42 21 -68 43 -98 84 -23 32 -68 84 -101 118 -32 34 -72 88 -88
120 -29 58 -30 59 -24 19 4 -22 15 -55 25 -72 23 -40 12 -44 -17 -5 -48 65
-55 92 -63 237 -7 113 -13 156 -34 215 -15 41 -29 83 -33 93 -11 33 25 17 67
-30z m1110 -159 c0 -19 -4 -34 -10 -34 -5 0 -10 13 -10 29 0 16 -3 38 -7 48
-6 16 -5 16 10 4 10 -8 17 -28 17 -47z m-886 -23 c-6 -50 -24 -62 -24 -16 0
28 18 80 26 73 3 -3 2 -29 -2 -57z m812 25 c3 -19 1 -43 -4 -53 -10 -16 -12
-15 -21 10 -12 32 -14 61 -4 70 14 14 22 6 29 -27z m-446 -22 c22 -52 25 -80
10 -119 -8 -21 -16 -26 -37 -23 -42 5 -58 46 -43 106 10 39 34 82 46 82 2 0
12 -21 24 -46z m108 38 c15 -10 32 -66 32 -105 0 -17 -10 -38 -26 -53 -25 -25
-26 -26 -46 -8 -17 16 -19 28 -16 80 2 34 10 69 17 78 15 18 21 19 39 8z m128
-34 c27 -52 5 -128 -37 -128 -28 0 -42 36 -35 88 6 46 31 86 47 76 5 -3 16
-19 25 -36z m160 -2 c8 -44 -11 -83 -32 -65 -16 13 -19 62 -3 90 13 26 27 16
35 -25z m-849 -3 c-3 -10 -5 -4 -5 12 0 17 2 24 5 18 2 -7 2 -21 0 -30z m158
27 c3 -5 3 -32 -1 -60 -5 -39 -10 -50 -23 -48 -21 4 -25 39 -11 83 12 35 24
44 35 25z m189 -28 c6 -22 5 -45 -3 -73 -10 -32 -16 -40 -33 -37 -30 4 -42 51
-27 106 10 35 16 42 33 40 13 -2 24 -14 30 -36z m426 12 c20 -53 6 -124 -25
-124 -33 0 -44 59 -21 115 18 42 33 45 46 9z m-533 -62 c-6 -54 -20 -71 -43
-51 -12 10 -15 23 -10 58 3 24 11 50 18 58 20 25 40 -14 35 -65z m-210 36 c-3
-7 -5 -2 -5 12 0 14 2 19 5 13 2 -7 2 -19 0 -25z m-16 -108 l-6 -45 -18 25
c-20 29 -22 61 -5 78 22 22 37 -8 29 -58z m966 33 c-4 -20 -13 -43 -21 -51
-12 -12 -14 -7 -14 37 0 44 3 51 20 51 18 0 20 -5 15 -37z m-57 -17 c0 -19 -8
-44 -18 -56 -17 -21 -17 -21 -15 32 1 29 2 54 3 56 0 1 7 2 15 2 10 0 15 -10
15 -34z m-851 -8 c-6 -11 -9 -33 -7 -49 6 -40 -8 -36 -22 6 -13 40 1 78 25 69
11 -5 12 -10 4 -26z m801 -21 c0 -31 -23 -77 -38 -77 -4 0 -7 25 -7 55 0 40 4
55 15 58 24 6 30 -2 30 -36z m-744 1 c-3 -13 -6 -38 -6 -56 0 -41 -16 -33 -29
14 -12 44 -5 64 21 64 16 0 19 -5 14 -22z m139 -70 c1 -38 -2 -68 -7 -68 -13
0 -38 64 -38 98 0 33 8 44 28 40 11 -2 15 -21 17 -70z m538 58 c8 -19 -3 -57
-21 -78 -22 -26 -33 -22 -22 8 6 14 10 39 10 55 0 30 23 41 33 15z m-613 -28
c0 -18 3 -43 6 -55 8 -29 -21 -32 -36 -4 -11 22 -14 74 -3 84 17 18 33 5 33
-25z m546 -14 c-6 -49 -20 -74 -40 -74 -8 0 -13 80 -6 118 0 1 12 2 26 2 26 0
27 -1 20 -46z m-393 -32 c2 -72 -15 -84 -39 -27 -17 42 -18 67 -2 83 27 27 40
9 41 -56z m317 18 c0 -37 -5 -55 -21 -71 -11 -11 -23 -19 -25 -16 -3 2 -2 34
2 71 6 55 10 66 25 66 16 0 19 -8 19 -50z m-150 -5 c0 -44 -16 -95 -31 -95
-10 0 -29 58 -29 91 0 16 7 32 18 38 33 20 42 13 42 -34z m-83 -10 c5 -46 -3
-85 -17 -85 -15 0 -40 56 -40 88 0 34 8 44 34 40 14 -2 20 -13 23 -43z m163 4
c0 -55 -29 -107 -52 -93 -13 8 -9 109 4 122 7 7 20 12 30 12 14 0 18 -8 18
-41z"/>
<path d="M1975 3765 c-94 -57 -187 -130 -232 -184 -34 -39 -47 -48 -64 -44
-19 5 -21 3 -15 -20 4 -19 -3 -43 -28 -91 -42 -78 -60 -157 -48 -211 14 -69
36 -56 49 29 16 98 65 208 89 199 14 -5 16 -2 11 18 -12 48 136 212 267 295
43 27 57 44 38 44 -5 0 -34 -16 -67 -35z"/>
<path d="M3146 3578 c104 -110 129 -145 114 -163 -16 -20 -3 -40 17 -24 12 10
16 10 24 -2 12 -19 11 -36 -1 -44 -15 -9 -12 -45 3 -45 7 0 18 5 25 12 11 11
36 -32 67 -117 5 -13 9 -16 12 -7 3 7 -7 48 -21 91 -20 61 -24 85 -17 105 11
28 -5 48 -20 25 -13 -20 -29 7 -29 49 0 27 -3 32 -17 29 -12 -4 -31 10 -58 42
-45 54 -130 121 -153 121 -8 0 16 -32 54 -72z"/>
<path d="M1755 2963 c-42 -21 -75 -54 -75 -71 0 -12 5 -11 23 6 32 30 75 44
134 43 60 0 111 -23 194 -87 70 -54 218 -144 236 -144 25 0 13 25 -25 50 -20
13 -85 59 -143 102 -59 43 -126 87 -150 98 -54 24 -151 26 -194 3z"/>
<path d="M3021 2960 c-24 -11 -91 -55 -150 -98 -58 -43 -123 -89 -143 -102
-38 -25 -50 -50 -25 -50 18 0 166 90 236 144 89 69 128 86 194 86 62 0 113
-17 136 -43 7 -9 18 -14 23 -11 13 9 -30 52 -74 75 -50 25 -139 25 -197 -1z"/>
<path d="M2562 2923 c-37 -14 -62 -163 -27 -163 10 0 15 10 15 32 0 17 10 51
21 76 21 42 17 64 -9 55z"/>
<path d="M2410 2894 c0 -9 11 -29 25 -46 14 -16 25 -41 25 -55 0 -15 5 -23 13
-20 16 5 11 71 -9 109 -16 30 -54 39 -54 12z"/>
<path d="M1818 2755 c-93 -53 -92 -293 3 -414 13 -17 52 -45 86 -62 58 -29 68
-31 142 -27 92 5 124 22 211 110 58 58 51 31 -8 -34 l-37 -41 35 18 c97 50
148 123 122 179 -16 36 -85 87 -212 158 -214 119 -287 144 -342 113z"/>
<path d="M3078 2740 c-55 -17 -268 -129 -345 -181 -64 -44 -103 -88 -103 -115
0 -53 54 -115 137 -158 52 -26 52 -19 2 33 -73 76 -80 103 -8 35 104 -98 138
-117 217 -117 172 -2 282 123 282 322 0 86 -15 134 -52 167 -32 30 -67 34
-130 14z"/>
<path d="M2458 2303 c-8 -10 -33 -45 -55 -78 -102 -153 -110 -216 -32 -255 49
-26 83 -25 107 1 25 26 32 69 32 202 0 134 -15 172 -52 130z"/>
<path d="M2532 2308 c-8 -8 -12 -54 -12 -145 0 -151 12 -198 54 -209 57 -14
136 39 136 93 0 29 -44 117 -102 202 -47 70 -57 78 -76 59z"/>
<path d="M1790 2297 c0 -33 115 -106 167 -107 25 0 41 18 21 24 -7 2 -32 9
-55 15 -23 6 -63 27 -88 46 -26 20 -45 29 -45 22z"/>
<path d="M3204 2289 c-23 -26 -111 -69 -141 -69 -14 0 -23 -6 -23 -15 0 -19
40 -20 84 -1 36 15 116 82 116 97 0 15 -16 10 -36 -12z"/>
<path d="M1650 2160 c0 -5 17 -29 38 -52 36 -40 100 -77 135 -78 32 0 17 17
-30 35 -26 10 -66 38 -89 62 -43 44 -54 51 -54 33z"/>
<path d="M2500 1790 c0 -40 4 -70 10 -70 6 0 10 30 10 70 0 40 -4 70 -10 70
-6 0 -10 -30 -10 -70z"/>
<path d="M2376 1831 c-13 -20 -19 -101 -8 -101 15 0 18 8 26 63 7 43 -3 63
-18 38z"/>
<path d="M2616 1793 c7 -53 20 -75 29 -51 8 20 -13 98 -25 98 -6 0 -7 -20 -4
-47z"/>
<path d="M2149 1803 c-11 -29 -6 -53 11 -53 5 0 10 8 10 18 0 9 3 27 6 40 9
32 -14 28 -27 -5z"/>
<path d="M2256 1822 c-11 -18 -17 -80 -8 -86 14 -8 18 0 27 52 4 27 3 42 -4
42 -5 0 -12 -3 -15 -8z"/>
<path d="M2724 1788 c9 -53 26 -75 26 -32 0 40 -10 74 -22 74 -7 0 -8 -16 -4
-42z"/>
<path d="M2814 1799 c3 -17 6 -35 6 -40 0 -5 5 -9 10 -9 11 0 13 39 4 64 -11
29 -27 17 -20 -15z"/>
<path d="M2070 1805 c-13 -16 -7 -45 10 -45 5 0 10 6 10 14 0 8 3 21 6 30 8
20 -10 21 -26 1z"/>
<path d="M2883 1806 c4 -10 7 -24 7 -32 0 -8 5 -14 11 -14 15 0 6 53 -10 58
-10 3 -12 0 -8 -12z"/>
<path d="M4029 1584 c-26 -32 34 -234 69 -234 15 0 15 5 -13 80 -9 25 -17 71
-18 102 0 60 -15 80 -38 52z"/>
<path d="M944 1592 c-5 -4 -11 -32 -11 -62 -1 -30 -9 -75 -18 -100 -28 -76
-28 -80 -13 -80 20 0 55 78 69 155 11 55 10 68 -2 80 -8 8 -19 11 -25 7z"/>
<path d="M2030 1415 c0 -16 6 -25 16 -25 11 0 14 5 10 16 -3 9 -6 20 -6 25 0
5 -4 9 -10 9 -5 0 -10 -11 -10 -25z"/>
<path d="M2940 1415 c0 -14 5 -25 10 -25 6 0 10 11 10 25 0 14 -4 25 -10 25
-5 0 -10 -11 -10 -25z"/>
<path d="M2132 1356 c2 -15 8 -26 13 -26 15 0 12 43 -3 48 -10 3 -13 -4 -10
-22z"/>
<path d="M2844 1367 c-3 -9 -3 -25 1 -34 6 -16 8 -15 16 6 6 16 6 28 0 34 -7
7 -12 5 -17 -6z"/>
<path d="M2227 1334 c-4 -4 -7 -18 -7 -31 0 -28 23 -27 28 1 4 20 -11 40 -21
30z"/>
<path d="M2754 1326 c-7 -20 2 -46 16 -46 13 0 13 47 0 55 -6 3 -13 -1 -16 -9z"/>
<path d="M2320 1265 c0 -36 13 -47 24 -19 11 28 6 54 -9 54 -10 0 -15 -11 -15
-35z"/>
<path d="M2662 1269 c2 -19 8 -33 13 -31 15 3 12 55 -3 60 -10 3 -13 -5 -10
-29z"/>
<path d="M2418 1283 c-7 -15 -1 -78 8 -83 12 -7 18 70 6 82 -5 5 -12 6 -14 1z"/>
<path d="M2575 1277 c-9 -22 -2 -82 9 -79 10 2 13 79 3 89 -4 3 -9 -1 -12 -10z"/>
<path d="M2495 1248 c-8 -44 -3 -94 10 -91 6 2 11 26 13 54 4 62 -13 89 -23
37z"/>
<path d="M2761 1176 c-46 -41 -100 -66 -143 -66 -10 0 -18 -4 -18 -10 0 -17
92 -11 135 9 43 19 95 73 95 97 0 23 -17 16 -69 -30z"/>
<path d="M2186 1181 c-10 -15 32 -58 77 -80 48 -23 88 -27 118 -10 27 14 15
29 -24 29 -49 0 -103 18 -136 46 -16 13 -32 20 -35 15z"/>
<path d="M85 1110 c-8 -13 3 -30 18 -29 9 0 9 2 0 6 -20 8 -15 21 10 26 22 4
22 4 0 6 -12 0 -25 -3 -28 -9z"/>
<path d="M132 1094 c-7 -8 -8 -14 -3 -14 10 0 25 19 20 25 -2 1 -10 -3 -17
-11z"/>
<path d="M98 1053 c12 -2 30 -2 40 0 9 3 -1 5 -23 4 -22 0 -30 -2 -17 -4z"/>
<path d="M85 1019 c-4 -6 -4 -13 -1 -16 3 -4 6 -1 6 5 0 17 20 15 42 -5 17
-15 18 -15 18 8 0 17 -3 20 -9 10 -6 -9 -11 -10 -15 -2 -9 14 -33 14 -41 0z"/>
<path d="M100 980 l-24 -6 24 -17 c19 -13 26 -14 29 -5 2 7 8 16 13 19 15 10
-14 16 -42 9z"/>
<path d="M85 919 c-4 -6 -4 -13 -1 -16 3 -4 6 -1 6 5 0 17 20 15 42 -5 17 -15
18 -15 18 8 0 17 -3 20 -9 10 -6 -9 -11 -10 -15 -2 -9 14 -33 14 -41 0z"/>
<path d="M85 869 c-4 -6 -4 -13 -1 -16 3 -4 6 -1 6 5 0 17 20 15 42 -5 17 -15
18 -15 18 8 0 17 -3 20 -9 10 -6 -9 -11 -10 -15 -2 -9 14 -33 14 -41 0z"/>
<path d="M100 830 l-24 -6 24 -17 c19 -13 26 -14 29 -5 2 7 8 16 13 19 15 10
-14 16 -42 9z"/>
<path d="M85 769 c-4 -6 -4 -13 -1 -16 3 -4 6 -1 6 5 0 17 20 15 42 -5 17 -15
18 -15 18 8 0 17 -3 20 -9 10 -6 -9 -11 -10 -15 -2 -9 14 -33 14 -41 0z"/>
<path d="M85 719 c-4 -6 -4 -13 -1 -16 3 -4 6 -1 6 5 0 17 20 15 42 -5 17 -15
18 -15 18 8 0 17 -3 20 -9 10 -6 -9 -11 -10 -15 -2 -9 14 -33 14 -41 0z"/>
<path d="M100 667 c0 -18 2 -19 10 -7 6 10 10 11 10 3 0 -7 4 -13 10 -13 14 0
1 27 -16 34 -9 4 -14 -2 -14 -17z"/>
<path d="M123 613 c9 -2 25 -2 35 0 9 3 1 5 -18 5 -19 0 -27 -2 -17 -5z"/>
<path d="M130 566 c-6 -8 -24 -17 -38 -19 -16 -2 -8 -4 18 -5 25 0 39 2 32 5
-10 4 -10 8 -1 19 6 8 9 14 6 14 -2 0 -10 -6 -17 -14z"/>
<path d="M100 521 c0 -6 4 -13 10 -16 6 -3 7 1 4 9 -7 18 -14 21 -14 7z"/>
<path d="M136 513 c-6 -14 -5 -15 5 -6 7 7 10 15 7 18 -3 3 -9 -2 -12 -12z"/>
<path d="M104 479 c-3 -6 -1 -16 5 -22 9 -9 11 -8 6 6 -5 12 -2 17 10 17 12 0
15 -5 10 -17 -5 -14 -3 -15 6 -6 13 13 4 33 -16 33 -8 0 -17 -5 -21 -11z"/>
<path d="M94 431 c-2 -2 -1 -7 1 -11 5 -9 55 -1 55 9 0 6 -49 9 -56 2z"/>
<path d="M80 388 c0 -21 36 -25 43 -5 4 9 8 8 16 -3 9 -13 11 -13 11 3 0 20
-36 24 -43 5 -4 -10 -8 -9 -16 2 -9 13 -11 13 -11 -2z"/>
<path d="M104 318 c1 -7 12 -14 24 -16 16 -2 22 2 22 15 0 15 -2 16 -10 3 -9
-13 -10 -13 -10 0 0 12 -2 13 -9 1 -6 -9 -10 -10 -14 -2 -3 7 -5 7 -3 -1z"/>
<path d="M103 277 c-4 -8 -15 -17 -23 -20 -8 -3 4 -6 28 -6 36 -1 43 2 40 16
-4 22 -34 29 -45 10z m37 -7 c0 -5 -7 -10 -15 -10 -8 0 -15 5 -15 10 0 6 7 10
15 10 8 0 15 -4 15 -10z"/>
<path d="M104 229 c-3 -6 -1 -16 5 -22 9 -9 11 -8 6 6 -5 12 -2 17 10 17 12 0
15 -5 10 -17 -5 -14 -3 -15 6 -6 13 13 4 33 -16 33 -8 0 -17 -5 -21 -11z"/>
<path d="M80 183 c8 -4 21 -13 28 -22 11 -14 11 -14 6 2 -4 12 -1 17 11 17 12
0 15 -5 10 -17 -5 -14 -3 -15 6 -6 18 18 1 33 -39 32 -20 0 -30 -3 -22 -6z"/>
<path d="M130 132 c-22 -10 -21 -39 2 -45 16 -4 17 -3 7 9 -9 11 -9 17 1 29
14 16 13 17 -10 7z"/>
<path d="M80 110 c0 -5 5 -10 10 -10 6 0 10 5 10 10 0 6 -4 10 -10 10 -5 0
-10 -4 -10 -10z"/>
</g>
</svg>
